<?xml version="1.0" encoding="utf-8"?>
<!-- Generator: Adobe Illustrator 15.0.0, SVG Export Plug-In . SVG Version: 6.00 Build 0)  -->
<!DOCTYPE svg PUBLIC "-//W3C//DTD SVG 1.1//EN" "http://www.w3.org/Graphics/SVG/1.1/DTD/svg11.dtd">
<svg version="1.1" id="Capa_1" xmlns="http://www.w3.org/2000/svg" xmlns:xlink="http://www.w3.org/1999/xlink" x="0px" y="0px"
	 width="220px" height="47px" viewBox="0 0 220 47" enable-background="new 0 0 220 47" xml:space="preserve">
<g>
	<path fill="#FFFFFF" d="M169.97,18.45v13.836h2.601v-15.98l-3.245,0.959L169.97,18.45L169.97,18.45z M171.375,11.15
		c-0.825,0-1.836,0.608-1.836,1.569c0,0.864,0.642,1.473,1.438,1.473c0.828,0,1.808-0.608,1.808-1.569
		C172.785,11.79,172.172,11.15,171.375,11.15L171.375,11.15z M158.268,8.971h-3.464l0.708,1.25v22.065h10.996l0.766-2.114h-9.007
		L158.268,8.971L158.268,8.971z M186.356,30.107c-0.706,0.447-1.563,0.574-2.39,0.574c-1.653,0-3.217-0.703-4.381-1.888v-9.159
		c0.979-0.962,1.87-1.344,3.216-1.344c3.462,0,6.097,2.977,6.097,6.563C188.898,26.873,188.04,29.02,186.356,30.107L186.356,30.107z
		 M184.271,16.307c-1.807,0-3.245,0.704-4.686,1.76V8.586l-3.247,0.961l0.642,1.185v20.719c0.217,0.064,0.8,0.193,0.982,0.193
		c0.185,0,0.246-0.642,0.366-0.642c0.094,0,0.123,0.095,0.216,0.16c0.215,0.16,0.46,0.317,0.704,0.448
		c1.194,0.673,2.512,1.057,3.859,1.057c1.255,0,2.48-0.35,3.584-0.993l1.196-0.704c2.355-1.375,3.644-4.066,3.644-6.851
		C191.532,19.858,188.405,16.307,184.271,16.307L184.271,16.307z M215.393,29.369c-0.184,0.193-0.583,0.609-0.797,0.738
		c-0.613,0.386-1.653,0.574-2.357,0.574c-3.462,0-6.034-3.009-6.034-6.563c0-2.019,0.855-4.164,2.541-5.253
		c0.706-0.449,1.501-0.575,2.327-0.575c3.464,0,6.067,3.008,6.067,6.563C217.14,26.521,216.494,28.15,215.393,29.369L215.393,29.369
		z M212.238,16.307c-1.38,0-2.637,0.351-3.831,1.054c-0.396,0.224-0.794,0.483-1.191,0.706c-2.359,1.407-3.678,3.938-3.678,6.789
		c0,4.387,3.339,7.813,7.534,7.813c1.378,0,2.667-0.382,3.862-1.087c0.398-0.225,0.765-0.482,1.163-0.705
		c2.356-1.441,3.677-3.906,3.677-6.755C219.774,19.7,216.436,16.307,212.238,16.307L212.238,16.307z M198.973,17.202
		c-0.485,0.32-1.313,0.898-1.653,1.376v-2.272l-3.213,0.96l0.641,1.184v13.836h2.604V20.371c0.767-1.28,1.563-1.984,3.035-1.984
		c0.919,0,1.591,0.287,2.45,0.608l0.673-2.306c-0.491-0.257-1.072-0.383-1.623-0.383C200.721,16.306,199.954,16.561,198.973,17.202
		L198.973,17.202z M141.773,16.956V32.15h1.836V15.442l-2.288,0.677L141.773,16.956L141.773,16.956z M130.694,25.514
		c0.151-1.107,0.734-2.304,1.664-2.889c0.475-0.318,1.058-0.364,1.619-0.364c1.836,0,3.413,1.333,3.672,3.253H130.694
		L130.694,25.514z M134.647,20.884c-1.424,0-2.117,0.473-3.307,1.22c-1.639,1.038-2.59,2.798-2.59,4.808
		c0,3.139,2.397,5.51,5.38,5.51c1.1,0,2.2-0.316,3.149-0.882c0.647-0.383,1.255-0.722,1.792-1.241l-0.429-0.813
		c-1.254,0.97-1.989,1.559-3.632,1.559c-1.813,0-3.475-1.176-4.08-2.982c-0.106-0.336-0.238-0.769-0.238-1.127
		c0-0.047,0.045-0.112,0.063-0.158h8.555c0-0.723,0.042-1.401-0.131-2.101C138.644,22.465,136.851,20.884,134.647,20.884z
		 M83.669,20.875c-0.007-0.642,0.317-1.607,0.896-1.901c0.212-0.13,0.825-0.203,1.069-0.208c1.287-0.015,2.642,0.674,3.633,1.525
		l0.832-2.282c-1.113-0.819-2.404-1.252-3.783-1.235c-0.765,0.01-1.497,0.241-2.167,0.635l-1.186,0.72
		c-1.217,0.718-1.906,2.073-1.89,3.513c0.063,5.413,7.108,2.731,7.158,7.215c0.019,1.311-0.734,2.311-2.021,2.328
		c-1.594,0.021-2.981-0.765-4.217-1.74l-0.862,2.348c1.204,0.883,2.681,1.376,4.151,1.357c0.816-0.012,1.617-0.241,2.32-0.67
		l1.154-0.717c1.277-0.785,2.088-2.172,2.07-3.742C90.763,22.482,83.718,25.068,83.669,20.875L83.669,20.875z M99.197,31.059
		c-1.807,0.022-3.443-1.109-3.469-3.129c-0.011-0.992,0.375-2.213,1.224-2.771c1.064-0.685,3.911-0.877,5.167-0.925l0.054,4.771
		C101.45,30.07,100.542,31.042,99.197,31.059L99.197,31.059z M104.771,28.523l-0.089-7.652c-0.034-2.883-2.041-4.299-4.646-4.269
		c-2.295,0.028-3.729,0.72-5.676,1.896l0.443,1.179c1.127-0.654,2.531-1.057,3.817-1.072c1.717-0.02,3.193,0.858,3.341,2.778
		c0.096,0.383,0.04,0.834,0.104,1.248c-1.773,0.087-3.978,0.368-5.527,1.348l-1.187,0.753c-1.49,0.945-2.21,2.268-2.188,4.095
		c0.028,2.653,2.069,4.2,4.488,4.173c1.594-0.021,3.721-1.331,4.779-2.525c0.326,1.756,1.344,2.192,2.937,2.172l0.858-0.01
		l0.682-1.897C105.287,30.76,104.794,30.223,104.771,28.523L104.771,28.523z M71.477,31.4c-1.809,0.022-3.444-1.112-3.469-3.129
		c-0.011-0.992,0.375-2.215,1.225-2.772c1.063-0.685,3.912-0.877,5.167-0.926l0.056,4.772C73.731,30.412,72.822,31.383,71.477,31.4z
		 M77.053,28.864l-0.09-7.652c-0.033-2.881-2.041-4.297-4.646-4.267c-2.297,0.03-3.727,0.718-5.675,1.895l0.443,1.182
		c1.126-0.655,2.529-1.057,3.816-1.074c1.715-0.021,3.194,0.857,3.341,2.778c0.098,0.383,0.038,0.831,0.105,1.248
		c-1.776,0.084-3.979,0.37-5.528,1.349l-1.188,0.751c-1.49,0.945-2.208,2.27-2.188,4.095c0.031,2.657,2.071,4.201,4.491,4.173
		c1.594-0.021,3.722-1.328,4.779-2.525c0.326,1.758,1.345,2.191,2.937,2.173l0.858-0.011l0.684-1.896
		C77.571,31.1,77.074,30.563,77.053,28.864L77.053,28.864z M124.67,30.096c-0.627,0.656-1.404,0.926-2.269,0.926
		c-2.441,0-4.298-2.121-4.298-4.627c0-1.424,0.625-2.936,1.815-3.704c0.495-0.317,1.078-0.407,1.641-0.407
		c1.165,0,2.29,0.498,3.109,1.377L124.67,30.096L124.67,30.096z M124.67,16.956v4.739c-0.734-0.518-1.601-0.811-2.482-0.811
		c-0.897,0.001-1.778,0.251-2.551,0.723l-0.818,0.497c-1.645,0.993-2.593,2.822-2.593,4.808c0,3.023,2.224,5.51,5.141,5.51
		c1.316,0,2.268-0.52,3.325-1.265v0.993h1.814V15.442l-2.312,0.677L124.67,16.956L124.67,16.956z M56.866,31.518
		c-5.482,0.063-9.979-4.557-10.046-10.287c-0.04-3.363,1.482-6.84,4.281-8.634c1.307-0.85,2.807-1.125,4.307-1.144
		c2.296-0.028,4.264,0.524,6.237,1.779l0.92-2.604c-1.91-0.938-3.938-1.362-6.05-1.336c-2.052,0.028-3.945,0.656-5.74,1.705
		c-0.425,0.261-0.82,0.49-1.246,0.753c-3.499,2.156-5.567,6.026-5.519,10.251c0.078,6.597,5.316,11.722,11.563,11.644
		c3.339-0.041,4.74-0.666,7.51-2.4l-0.233-1.467C60.934,30.952,59.102,31.489,56.866,31.518z"/>
	<path fill="#D59B34" d="M39.142,35.417c0,0,0.19,2.112,0.061,2.985c-0.063,0.398-5.723,8.295-16.041,8.306
		c-5.641,0.008-8.378-4.056-16.003-3.7c-2.604,0.122-5.292,1.145-7.087,2.628c-0.215-0.626-0.368-1.256-0.265-1.706
		c0.689-1.313,1.755-2.447,2.957-3.334c3.248-5.258,5.24-24.929,3.903-38.271c1.128-1.2,2.572-2.225,4.107-2.616
		c0,0,0.611,1.184,0.688,2.967c0.283,6.307-1.961,26.559-5.27,36.03c0,0,2.866-0.774,5.389-0.409
		c4.575,0.672,8.188,5.014,14.276,4.777C34.453,42.74,39.142,35.417,39.142,35.417"/>
	<path fill="#D59B34" d="M33.418,35.348l0.017-0.033c-0.437,0.177-0.875,0.348-1.313,0.515c-0.541,0.208-1.089,0.442-1.653,0.567
		c-0.65,0.144-1.301,0.28-1.944,0.459c-0.109,0.03-0.221,0.063-0.33,0.104c-0.172,0.069-0.34,0.207-0.468,0.34
		c-0.344,0.362-0.454,0.894-0.283,1.368c0.177,0.488,0.639,0.861,1.146,0.895c0.391,0.026,0.766-0.129,1.117-0.291
		c0.368-0.166,0.733-0.35,1.071-0.569c0.438-0.292,0.841-0.636,1.201-1.021c0.634-0.673,1.129-1.469,1.456-2.342
		C33.43,35.342,33.425,35.346,33.418,35.348"/>
</g>
</svg>
