<svg width="29" height="28" viewBox="0 0 29 28" fill="none" xmlns="http://www.w3.org/2000/svg">
<path d="M22.5969 21.0109C21.3883 18.9109 19.1188 17.5 16.5266 17.5H13.0266C10.4344 17.5 8.16489 18.9109 6.9563 21.0109C8.8813 23.1547 11.6704 24.5 14.7766 24.5C17.8829 24.5 20.6719 23.1492 22.5969 21.0109ZM28.7766 14C28.7766 21.7328 22.5094 28 14.7766 28C7.0438 28 0.776611 21.7328 0.776611 14C0.776611 6.26719 7.0438 0 14.7766 0C22.5094 0 28.7766 6.26719 28.7766 14ZM14.7766 14.875C16.9532 14.875 18.7141 13.1141 18.7141 10.9375C18.7141 8.76094 16.9532 7 14.7766 7C12.6 7 10.8391 8.76094 10.8391 10.9375C10.8391 13.1141 12.6 14.875 14.7766 14.875Z" fill="white"/>
</svg>
